<svg width="92" height="60" viewBox="0 0 92 60" fill="none" xmlns="http://www.w3.org/2000/svg">
<path fill-rule="evenodd" clip-rule="evenodd" d="M19.5 39H4.5C3.65997 39 3 39.66 3 40.5V55.5C3 56.34 3.65997 57 4.5 57H11.4H15H19.5C20.34 57 21 56.34 21 55.5V40.5C21 39.66 20.34 39 19.5 39ZM12.0518 50.2609H9.79999V47.9652H12.0518V45.9565C12.0518 44.3209 13.2904 42.9435 14.8667 42.8H17.4V45.0957H15.1481C14.6696 45.0957 14.3037 45.4688 14.3037 45.9565V47.9652H17.1185V50.2609H14.3037V56.2001H12.0518V50.2609ZM14.9286 56.2001H19.3214C19.8193 56.2001 20.2 55.8193 20.2 55.3215V40.6786C20.2 40.1808 19.8193 39.8 19.3214 39.8H4.67856C4.18069 39.8 3.79999 40.1808 3.79999 40.6786V55.3215C3.79999 55.8193 4.18069 56.2001 4.67856 56.2001H11.4142V50.9286H9.07138V47.4143H11.4142V45.9501C11.4142 43.9879 12.9371 42.3186 14.8993 42.1429H18.15V45.6572H15.2214C15.0457 45.6572 14.9286 45.7743 14.9286 45.9501V47.4143H17.8571V50.9286H14.9286V56.2001Z" fill="white"/>
<mask id="mask0_0_1107" style="mask-type:luminance" maskUnits="userSpaceOnUse" x="3" y="39" width="18" height="18">
<path fill-rule="evenodd" clip-rule="evenodd" d="M19.5 39H4.5C3.65997 39 3 39.66 3 40.5V55.5C3 56.34 3.65997 57 4.5 57H11.4H15H19.5C20.34 57 21 56.34 21 55.5V40.5C21 39.66 20.34 39 19.5 39ZM12.0518 50.2609H9.79999V47.9652H12.0518V45.9565C12.0518 44.3209 13.2904 42.9435 14.8667 42.8H17.4V45.0957H15.1481C14.6696 45.0957 14.3037 45.4688 14.3037 45.9565V47.9652H17.1185V50.2609H14.3037V56.2001H12.0518V50.2609ZM14.9286 56.2001H19.3214C19.8193 56.2001 20.2 55.8193 20.2 55.3215V40.6786C20.2 40.1808 19.8193 39.8 19.3214 39.8H4.67856C4.18069 39.8 3.79999 40.1808 3.79999 40.6786V55.3215C3.79999 55.8193 4.18069 56.2001 4.67856 56.2001H11.4142V50.9286H9.07138V47.4143H11.4142V45.9501C11.4142 43.9879 12.9371 42.3186 14.8993 42.1429H18.15V45.6572H15.2214C15.0457 45.6572 14.9286 45.7743 14.9286 45.9501V47.4143H17.8571V50.9286H14.9286V56.2001Z" fill="white"/>
</mask>
<g mask="url(#mask0_0_1107)">
</g>
<path fill-rule="evenodd" clip-rule="evenodd" d="M56.5302 42.0949C56.6525 42.0636 56.8052 42.0949 56.8969 42.1886C56.9885 42.2824 57.0191 42.4386 56.9886 42.5636C56.7136 43.4698 56.1637 44.126 55.4915 44.4698V44.5634C55.4915 50.5942 51.092 55.5 45.7148 55.5C42.6902 55.5 40.2461 54.9688 39.1462 54.0627C39.024 53.9377 38.9629 53.7814 39.024 53.5939C39.085 53.4377 39.2378 53.3127 39.4211 53.3127C41.2237 53.2814 42.3847 52.844 43.2707 52.3128C41.5597 52.094 40.4904 51.2504 39.9405 49.6568C39.8794 49.5005 39.9405 49.3443 40.0627 49.2505C40.1849 49.1568 40.3682 49.1568 40.4904 49.2193C40.9487 49.5318 41.407 49.5943 41.9569 49.5943C40.796 48.8757 39.7266 47.6882 39.2989 46.2195C39.2683 46.0633 39.3295 45.8759 39.4517 45.8134C39.6044 45.7196 39.7572 45.7509 39.8794 45.8446C40.2155 46.1258 40.5821 46.3133 41.132 46.407C39.9405 45.1571 39.2073 43.3135 40.246 41.2825L40.4293 40.9075L40.7348 41.22C42.6291 43.251 44.3705 44.1885 47.5479 44.8134V44.6884C47.5479 42.4074 49.2894 40.5325 51.4586 40.5013C52.314 40.5013 53.5055 41.1263 53.9944 41.4075C54.0061 41.4075 54.0177 41.412 54.0277 41.4159C54.0438 41.4223 54.0555 41.4268 54.0555 41.4075C54.6666 41.22 55.3998 40.9075 56.2552 40.5325C56.3775 40.47 56.5302 40.5013 56.6219 40.595C56.7136 40.6888 56.7441 40.8138 56.683 40.97C56.5302 41.4075 56.2858 41.8763 55.9192 42.3136L56.5302 42.0949ZM54.7354 44.2378L54.9133 44.1774C55.4764 43.9662 55.8025 43.5135 56.01 43.1213L54.854 43.5136C54.7058 43.5739 54.528 43.5136 54.4687 43.3627C54.4094 43.2117 54.4391 43.0307 54.5576 42.9401C55.0318 42.5478 55.3875 42.1253 55.6543 41.6727C55.0615 41.914 54.528 42.1253 54.0834 42.2762C53.9055 42.3365 53.7277 42.3063 53.5499 42.2159L53.5316 42.2057C53.1836 42.0123 52.0853 41.4014 51.4158 41.4312C49.6374 41.4613 48.2147 43.0005 48.2147 44.8716V45.7166L47.8589 45.6563C44.5986 45.0527 42.7905 44.1774 40.8935 42.2762C40.0043 44.5697 41.842 46.1694 42.4644 46.622L43.2054 47.1652H42.2866C41.6938 47.1652 41.0417 47.1049 40.4489 46.8333C41.101 48.2215 42.4348 49.2476 43.5611 49.5796L43.4722 50.1832C43.2351 50.1832 42.998 50.1832 42.7609 50.2133C42.1384 50.2436 41.5753 50.2436 41.0417 50.0624C41.6345 51.2093 42.6719 51.6922 44.3614 51.6922H45.2506L44.5096 52.2354C43.5908 52.9596 42.4051 53.6236 40.36 53.7746C41.3381 54.2574 43.1461 54.7101 45.8434 54.7101C50.4647 54.7101 54.7354 49.9991 54.7354 44.7509V44.2378Z" fill="white"/>
<mask id="mask1_0_1107" style="mask-type:luminance" maskUnits="userSpaceOnUse" x="39" y="40" width="18" height="16">
<path fill-rule="evenodd" clip-rule="evenodd" d="M56.5302 42.0949C56.6525 42.0636 56.8052 42.0949 56.8969 42.1886C56.9885 42.2824 57.0191 42.4386 56.9886 42.5636C56.7136 43.4698 56.1637 44.126 55.4915 44.4698V44.5634C55.4915 50.5942 51.092 55.5 45.7148 55.5C42.6902 55.5 40.2461 54.9688 39.1462 54.0627C39.024 53.9377 38.9629 53.7814 39.024 53.5939C39.085 53.4377 39.2378 53.3127 39.4211 53.3127C41.2237 53.2814 42.3847 52.844 43.2707 52.3128C41.5597 52.094 40.4904 51.2504 39.9405 49.6568C39.8794 49.5005 39.9405 49.3443 40.0627 49.2505C40.1849 49.1568 40.3682 49.1568 40.4904 49.2193C40.9487 49.5318 41.407 49.5943 41.9569 49.5943C40.796 48.8757 39.7266 47.6882 39.2989 46.2195C39.2683 46.0633 39.3295 45.8759 39.4517 45.8134C39.6044 45.7196 39.7572 45.7509 39.8794 45.8446C40.2155 46.1258 40.5821 46.3133 41.132 46.407C39.9405 45.1571 39.2073 43.3135 40.246 41.2825L40.4293 40.9075L40.7348 41.22C42.6291 43.251 44.3705 44.1885 47.5479 44.8134V44.6884C47.5479 42.4074 49.2894 40.5325 51.4586 40.5013C52.314 40.5013 53.5055 41.1263 53.9944 41.4075C54.0061 41.4075 54.0177 41.412 54.0277 41.4159C54.0438 41.4223 54.0555 41.4268 54.0555 41.4075C54.6666 41.22 55.3998 40.9075 56.2552 40.5325C56.3775 40.47 56.5302 40.5013 56.6219 40.595C56.7136 40.6888 56.7441 40.8138 56.683 40.97C56.5302 41.4075 56.2858 41.8763 55.9192 42.3136L56.5302 42.0949ZM54.7354 44.2378L54.9133 44.1774C55.4764 43.9662 55.8025 43.5135 56.01 43.1213L54.854 43.5136C54.7058 43.5739 54.528 43.5136 54.4687 43.3627C54.4094 43.2117 54.4391 43.0307 54.5576 42.9401C55.0318 42.5478 55.3875 42.1253 55.6543 41.6727C55.0615 41.914 54.528 42.1253 54.0834 42.2762C53.9055 42.3365 53.7277 42.3063 53.5499 42.2159L53.5316 42.2057C53.1836 42.0123 52.0853 41.4014 51.4158 41.4312C49.6374 41.4613 48.2147 43.0005 48.2147 44.8716V45.7166L47.8589 45.6563C44.5986 45.0527 42.7905 44.1774 40.8935 42.2762C40.0043 44.5697 41.842 46.1694 42.4644 46.622L43.2054 47.1652H42.2866C41.6938 47.1652 41.0417 47.1049 40.4489 46.8333C41.101 48.2215 42.4348 49.2476 43.5611 49.5796L43.4722 50.1832C43.2351 50.1832 42.998 50.1832 42.7609 50.2133C42.1384 50.2436 41.5753 50.2436 41.0417 50.0624C41.6345 51.2093 42.6719 51.6922 44.3614 51.6922H45.2506L44.5096 52.2354C43.5908 52.9596 42.4051 53.6236 40.36 53.7746C41.3381 54.2574 43.1461 54.7101 45.8434 54.7101C50.4647 54.7101 54.7354 49.9991 54.7354 44.7509V44.2378Z" fill="white"/>
</mask>
<g mask="url(#mask1_0_1107)">
</g>
<path fill-rule="evenodd" clip-rule="evenodd" d="M84.0325 39H75.9672C73.2283 39 71 41.2284 71 43.9673V52.0327C71 54.7717 73.2283 57 75.9672 57H84.0325C86.7717 57 89 54.7716 89 52.0327V43.9673C89.0001 41.2284 86.7717 39 84.0325 39ZM88.0001 52.3579C88.0001 54.3662 86.3662 56 84.3579 56H75.642C73.6338 56.0001 72 54.3662 72 52.3579V43.6421C72 41.6339 73.6338 40 75.642 40H84.3578C86.3661 40 88 41.6339 88 43.6421V52.3579H88.0001ZM75.3619 48.0002C75.3619 45.4427 77.4425 43.3621 80 43.3621C82.5575 43.3621 84.6381 45.4427 84.6381 48.0002C84.6381 50.5576 82.5575 52.6381 80 52.6381C77.4425 52.6381 75.3619 50.5576 75.3619 48.0002ZM84.4349 41.8342C84.5833 41.6851 84.7898 41.6 85 41.6C85.2109 41.6 85.4175 41.6851 85.5658 41.8342C85.7149 41.9825 85.8 42.1891 85.8 42.4C85.8 42.6102 85.7149 42.8167 85.5658 42.9658C85.4167 43.1142 85.2109 43.2 85 43.2C84.7898 43.2 84.5833 43.1142 84.4349 42.9658C84.2858 42.8167 84.2 42.6103 84.2 42.4C84.2 42.1891 84.2857 41.9825 84.4349 41.8342Z" fill="white"/>
<mask id="mask2_0_1107" style="mask-type:luminance" maskUnits="userSpaceOnUse" x="75" y="41" width="11" height="12">
<path fill-rule="evenodd" clip-rule="evenodd" d="M84.4349 41.8342C84.5833 41.6851 84.7898 41.6 85 41.6C85.2109 41.6 85.4175 41.6851 85.5658 41.8342C85.7149 41.9825 85.8 42.1891 85.8 42.4C85.8 42.6102 85.7149 42.8167 85.5658 42.9658C85.4167 43.1142 85.2109 43.2 85 43.2C84.7898 43.2 84.5833 43.1142 84.4349 42.9658C84.2858 42.8167 84.2 42.6102 84.2 42.4C84.2 42.1891 84.2857 41.9825 84.4349 41.8342ZM80 43.362C77.4424 43.362 75.3618 45.4427 75.3618 48.0002C75.3618 50.5576 77.4424 52.6381 80 52.6381C82.5575 52.6381 84.6381 50.5576 84.6381 48.0002C84.6381 45.4427 82.5575 43.362 80 43.362ZM80 51.8397C77.8827 51.8397 76.16 50.1173 76.16 48C76.16 45.8826 77.8826 44.16 80 44.16C82.1175 44.16 83.84 45.8826 83.84 48C83.84 50.1173 82.1173 51.8397 80 51.8397Z" fill="white"/>
</mask>
<g mask="url(#mask2_0_1107)">
</g>
<path d="M18.8281 3.625H20.3281V11.3203C20.3281 12.1745 20.138 12.8854 19.7578 13.4531C19.3776 14.0208 18.8724 14.4479 18.2422 14.7344C17.6172 15.0156 16.9375 15.1562 16.2031 15.1562C15.4323 15.1562 14.7344 15.0156 14.1094 14.7344C13.4896 14.4479 12.9974 14.0208 12.6328 13.4531C12.2734 12.8854 12.0938 12.1745 12.0938 11.3203V3.625H13.5859V11.3203C13.5859 11.9141 13.6953 12.4036 13.9141 12.7891C14.1328 13.1745 14.4375 13.4609 14.8281 13.6484C15.224 13.8359 15.6823 13.9297 16.2031 13.9297C16.7292 13.9297 17.1875 13.8359 17.5781 13.6484C17.974 13.4609 18.2812 13.1745 18.5 12.7891C18.7188 12.4036 18.8281 11.9141 18.8281 11.3203V3.625ZM22.4688 3H23.9219V13.3594L23.7969 15H22.4688V3ZM29.6328 10.7031V10.8672C29.6328 11.4818 29.5599 12.0521 29.4141 12.5781C29.2682 13.099 29.0547 13.5521 28.7734 13.9375C28.4922 14.3229 28.1484 14.6224 27.7422 14.8359C27.3359 15.0495 26.8698 15.1562 26.3438 15.1562C25.8073 15.1562 25.3359 15.0651 24.9297 14.8828C24.5286 14.6953 24.1901 14.4271 23.9141 14.0781C23.638 13.7292 23.4167 13.3073 23.25 12.8125C23.0885 12.3177 22.9766 11.7604 22.9141 11.1406V10.4219C22.9766 9.79688 23.0885 9.23698 23.25 8.74219C23.4167 8.2474 23.638 7.82552 23.9141 7.47656C24.1901 7.1224 24.5286 6.85417 24.9297 6.67188C25.3307 6.48438 25.7969 6.39062 26.3281 6.39062C26.8594 6.39062 27.3307 6.49479 27.7422 6.70312C28.1536 6.90625 28.4974 7.19792 28.7734 7.57812C29.0547 7.95833 29.2682 8.41406 29.4141 8.94531C29.5599 9.47135 29.6328 10.0573 29.6328 10.7031ZM28.1797 10.8672V10.7031C28.1797 10.2812 28.1406 9.88542 28.0625 9.51562C27.9844 9.14062 27.8594 8.8125 27.6875 8.53125C27.5156 8.24479 27.2891 8.02083 27.0078 7.85938C26.7266 7.69271 26.3802 7.60938 25.9688 7.60938C25.6042 7.60938 25.2865 7.67188 25.0156 7.79688C24.75 7.92188 24.5234 8.09115 24.3359 8.30469C24.1484 8.51302 23.9948 8.7526 23.875 9.02344C23.7604 9.28906 23.6745 9.5651 23.6172 9.85156V11.7344C23.7005 12.099 23.8359 12.4505 24.0234 12.7891C24.2161 13.1224 24.4714 13.3958 24.7891 13.6094C25.112 13.8229 25.5104 13.9297 25.9844 13.9297C26.375 13.9297 26.7083 13.8516 26.9844 13.6953C27.2656 13.5339 27.4922 13.3125 27.6641 13.0312C27.8411 12.75 27.9714 12.4245 28.0547 12.0547C28.138 11.6849 28.1797 11.2891 28.1797 10.8672ZM34.9688 15.1562C34.3802 15.1562 33.8464 15.0573 33.3672 14.8594C32.8932 14.6562 32.4844 14.3724 32.1406 14.0078C31.8021 13.6432 31.5417 13.2109 31.3594 12.7109C31.1771 12.2109 31.0859 11.6641 31.0859 11.0703V10.7422C31.0859 10.0547 31.1875 9.44271 31.3906 8.90625C31.5938 8.36458 31.8698 7.90625 32.2188 7.53125C32.5677 7.15625 32.9635 6.8724 33.4062 6.67969C33.849 6.48698 34.3073 6.39062 34.7812 6.39062C35.3854 6.39062 35.9062 6.49479 36.3438 6.70312C36.7865 6.91146 37.1484 7.20312 37.4297 7.57812C37.7109 7.94792 37.9193 8.38542 38.0547 8.89062C38.1901 9.39062 38.2578 9.9375 38.2578 10.5312V11.1797H31.9453V10H36.8125V9.89062C36.7917 9.51562 36.7135 9.15104 36.5781 8.79688C36.4479 8.44271 36.2396 8.15104 35.9531 7.92188C35.6667 7.69271 35.276 7.57812 34.7812 7.57812C34.4531 7.57812 34.151 7.64844 33.875 7.78906C33.599 7.92448 33.362 8.1276 33.1641 8.39844C32.9661 8.66927 32.8125 9 32.7031 9.39062C32.5938 9.78125 32.5391 10.2318 32.5391 10.7422V11.0703C32.5391 11.4714 32.5938 11.849 32.7031 12.2031C32.8177 12.5521 32.9818 12.8594 33.1953 13.125C33.4141 13.3906 33.6771 13.599 33.9844 13.75C34.2969 13.901 34.651 13.9766 35.0469 13.9766C35.5573 13.9766 35.9896 13.8724 36.3438 13.6641C36.6979 13.4557 37.0078 13.1771 37.2734 12.8281L38.1484 13.5234C37.9661 13.7995 37.7344 14.0625 37.4531 14.3125C37.1719 14.5625 36.8255 14.7656 36.4141 14.9219C36.0078 15.0781 35.526 15.1562 34.9688 15.1562ZM41.3906 7.875V15H39.9453V6.54688H41.3516L41.3906 7.875ZM44.0312 6.5L44.0234 7.84375C43.9036 7.81771 43.7891 7.80208 43.6797 7.79688C43.5755 7.78646 43.4557 7.78125 43.3203 7.78125C42.987 7.78125 42.6927 7.83333 42.4375 7.9375C42.1823 8.04167 41.9661 8.1875 41.7891 8.375C41.612 8.5625 41.4714 8.78646 41.3672 9.04688C41.2682 9.30208 41.2031 9.58333 41.1719 9.89062L40.7656 10.125C40.7656 9.61458 40.8151 9.13542 40.9141 8.6875C41.0182 8.23958 41.1771 7.84375 41.3906 7.5C41.6042 7.15104 41.875 6.88021 42.2031 6.6875C42.5365 6.48958 42.9323 6.39062 43.3906 6.39062C43.4948 6.39062 43.6146 6.40365 43.75 6.42969C43.8854 6.45052 43.9792 6.47396 44.0312 6.5ZM52.8125 13.7734V15H46.7891V13.7734H52.8125ZM47.0938 3.625V15H45.5859V3.625H47.0938ZM52.0156 8.51562V9.74219H46.7891V8.51562H52.0156ZM52.7344 3.625V4.85938H46.7891V3.625H52.7344ZM59.4453 13.5547V9.20312C59.4453 8.86979 59.3776 8.58073 59.2422 8.33594C59.112 8.08594 58.9141 7.89323 58.6484 7.75781C58.3828 7.6224 58.0547 7.55469 57.6641 7.55469C57.2995 7.55469 56.9792 7.61719 56.7031 7.74219C56.4323 7.86719 56.2188 8.03125 56.0625 8.23438C55.9115 8.4375 55.8359 8.65625 55.8359 8.89062H54.3906C54.3906 8.58854 54.4688 8.28906 54.625 7.99219C54.7812 7.69531 55.0052 7.42708 55.2969 7.1875C55.5938 6.94271 55.9479 6.75 56.3594 6.60938C56.776 6.46354 57.2396 6.39062 57.75 6.39062C58.3646 6.39062 58.9062 6.49479 59.375 6.70312C59.849 6.91146 60.2188 7.22656 60.4844 7.64844C60.7552 8.0651 60.8906 8.58854 60.8906 9.21875V13.1562C60.8906 13.4375 60.9141 13.737 60.9609 14.0547C61.013 14.3724 61.0885 14.6458 61.1875 14.875V15H59.6797C59.6068 14.8333 59.5495 14.612 59.5078 14.3359C59.4661 14.0547 59.4453 13.7943 59.4453 13.5547ZM59.6953 9.875L59.7109 10.8906H58.25C57.8385 10.8906 57.4714 10.9245 57.1484 10.9922C56.8255 11.0547 56.5547 11.151 56.3359 11.2812C56.1172 11.4115 55.9505 11.5755 55.8359 11.7734C55.7214 11.9661 55.6641 12.1927 55.6641 12.4531C55.6641 12.7188 55.724 12.9609 55.8438 13.1797C55.9635 13.3984 56.1432 13.5729 56.3828 13.7031C56.6276 13.8281 56.9271 13.8906 57.2812 13.8906C57.724 13.8906 58.1146 13.7969 58.4531 13.6094C58.7917 13.4219 59.0599 13.1927 59.2578 12.9219C59.4609 12.651 59.5703 12.388 59.5859 12.1328L60.2031 12.8281C60.1667 13.0469 60.0677 13.2891 59.9062 13.5547C59.7448 13.8203 59.5286 14.0755 59.2578 14.3203C58.9922 14.5599 58.6745 14.7604 58.3047 14.9219C57.9401 15.0781 57.5286 15.1562 57.0703 15.1562C56.4974 15.1562 55.9948 15.0443 55.5625 14.8203C55.1354 14.5964 54.8021 14.2969 54.5625 13.9219C54.3281 13.5417 54.2109 13.1172 54.2109 12.6484C54.2109 12.1953 54.2995 11.7969 54.4766 11.4531C54.6536 11.1042 54.9089 10.8151 55.2422 10.5859C55.5755 10.3516 55.9766 10.1745 56.4453 10.0547C56.9141 9.9349 57.4375 9.875 58.0156 9.875H59.6953ZM66.7031 6.54688V7.65625H62.1328V6.54688H66.7031ZM63.6797 4.49219H65.125V12.9062C65.125 13.1927 65.1693 13.4089 65.2578 13.5547C65.3464 13.7005 65.4609 13.7969 65.6016 13.8438C65.7422 13.8906 65.8932 13.9141 66.0547 13.9141C66.1745 13.9141 66.2995 13.9036 66.4297 13.8828C66.5651 13.8568 66.6667 13.8359 66.7344 13.8203L66.7422 15C66.6276 15.0365 66.4766 15.0703 66.2891 15.1016C66.1068 15.138 65.8854 15.1562 65.625 15.1562C65.2708 15.1562 64.9453 15.0859 64.6484 14.9453C64.3516 14.8047 64.1146 14.5703 63.9375 14.2422C63.7656 13.9089 63.6797 13.4609 63.6797 12.8984V4.49219ZM73.3203 12.7578C73.3203 12.5495 73.2734 12.3568 73.1797 12.1797C73.0911 11.9974 72.9062 11.8333 72.625 11.6875C72.349 11.5365 71.9323 11.4062 71.375 11.2969C70.9062 11.1979 70.4818 11.0807 70.1016 10.9453C69.7266 10.8099 69.4062 10.6458 69.1406 10.4531C68.8802 10.2604 68.6797 10.0339 68.5391 9.77344C68.3984 9.51302 68.3281 9.20833 68.3281 8.85938C68.3281 8.52604 68.401 8.21094 68.5469 7.91406C68.6979 7.61719 68.9089 7.35417 69.1797 7.125C69.4557 6.89583 69.7865 6.71615 70.1719 6.58594C70.5573 6.45573 70.987 6.39062 71.4609 6.39062C72.138 6.39062 72.7161 6.51042 73.1953 6.75C73.6745 6.98958 74.0417 7.3099 74.2969 7.71094C74.5521 8.10677 74.6797 8.54688 74.6797 9.03125H73.2344C73.2344 8.79688 73.1641 8.57031 73.0234 8.35156C72.888 8.1276 72.6875 7.94271 72.4219 7.79688C72.1615 7.65104 71.8411 7.57812 71.4609 7.57812C71.0599 7.57812 70.7344 7.64062 70.4844 7.76562C70.2396 7.88542 70.0599 8.03906 69.9453 8.22656C69.8359 8.41406 69.7812 8.61198 69.7812 8.82031C69.7812 8.97656 69.8073 9.11719 69.8594 9.24219C69.9167 9.36198 70.0156 9.47396 70.1562 9.57812C70.2969 9.67708 70.4948 9.77083 70.75 9.85938C71.0052 9.94792 71.3307 10.0365 71.7266 10.125C72.4193 10.2812 72.9896 10.4688 73.4375 10.6875C73.8854 10.9062 74.2188 11.1745 74.4375 11.4922C74.6562 11.8099 74.7656 12.1953 74.7656 12.6484C74.7656 13.0182 74.6875 13.3568 74.5312 13.6641C74.3802 13.9714 74.1589 14.237 73.8672 14.4609C73.5807 14.6797 73.237 14.8516 72.8359 14.9766C72.4401 15.0964 71.9948 15.1562 71.5 15.1562C70.7552 15.1562 70.125 15.0234 69.6094 14.7578C69.0938 14.4922 68.7031 14.1484 68.4375 13.7266C68.1719 13.3047 68.0391 12.8594 68.0391 12.3906H69.4922C69.513 12.7865 69.6276 13.1016 69.8359 13.3359C70.0443 13.5651 70.2995 13.7292 70.6016 13.8281C70.9036 13.9219 71.2031 13.9688 71.5 13.9688C71.8958 13.9688 72.2266 13.9167 72.4922 13.8125C72.763 13.7083 72.9688 13.5651 73.1094 13.3828C73.25 13.2005 73.3203 12.9922 73.3203 12.7578Z" fill="white"/>
<path d="M2.17969 15L4.39062 3.625H5.51562L3.29688 15H2.17969ZM5.35938 15L7.57812 3.625H8.69531L6.47656 15H5.35938ZM9.64844 7.96094H1.52344V6.875H9.64844V7.96094ZM9.0625 11.7969H0.929688V10.7188H9.0625V11.7969Z" fill="#49A144"/>
</svg>
